<?xml version="1.0" encoding="UTF-8"?><svg id="Layer_2" xmlns="http://www.w3.org/2000/svg" viewBox="0 0 302.02 302.02"><defs><style>.cls-1{fill:#fff;}.cls-2{fill:#295497;}</style></defs><circle class="cls-2" cx="151.01" cy="151.01" r="151.01"/><rect class="cls-1" x="109.6" y="119.52" width="81.83" height="30.48" rx="1" ry="1"/><rect class="cls-1" x="128.37" y="86.59" width="37.13" height="153.32" rx="1" ry="1"/><rect class="cls-1" x="152.62" y="61.95" width="40.47" height="29.62" rx="1" ry="1"/><path class="cls-1" d="M165.3,100.16s1.02-4.43,3.06-6.21,7.15-2.81,7.15-2.81h-10.21v9.02Z"/><path class="cls-1" d="M153.62,61.95s-5.91,1.31-7.72,2.17c-1.66,.79-4.68,2.98-6,4.26-1.88,1.81-5.38,5.73-6.81,7.91-1.11,1.7-3.07,5.28-3.74,7.19-.35,.99-.98,4.11-.98,4.11h24.26l1-25.64Z"/></svg>